<svg width="32" height="32" viewBox="0 0 32 32" fill="none" xmlns="http://www.w3.org/2000/svg">
<path d="M16 10.6667H26.6666C27.3739 10.6667 28.0522 10.9476 28.5523 11.4477C29.0524 11.9478 29.3333 12.6261 29.3333 13.3333V18.6667C29.3333 19.3739 29.0524 20.0522 28.5523 20.5523C28.0522 21.0524 27.3739 21.3333 26.6666 21.3333H25.3333V26.6667C25.3333 27.0203 25.1928 27.3594 24.9428 27.6095C24.6927 27.8595 24.3536 28 24 28H21.3333C20.9797 28 20.6406 27.8595 20.3905 27.6095C20.1405 27.3594 20 27.0203 20 26.6667V21.3333H16L9.33331 26.6667V5.33333L16 10.6667ZM12 20.8L14.6666 18.6667H26.6666V13.3333H14.6666L12 11.2V20.8ZM3.33331 16C3.33331 18.28 4.61331 20.3467 6.66665 21.3333V10.6667C4.62665 11.6667 3.33331 13.7333 3.33331 16Z" fill="#E3270D"/>
</svg>
