<svg width="32" height="32" viewBox="0 0 32 32" fill="none" xmlns="http://www.w3.org/2000/svg">
<path d="M16.3547 1H12.3094M14.332 1V4.46667M6.56936 3.37733L5.14003 4.808M5.14003 4.808L3.70936 6.23733M5.14003 4.808L7.5907 7.25867M1.33203 11.9773V16.0227M1.33203 14H4.7987M3.70936 21.7627L5.14003 23.192M5.14003 23.192L6.56936 24.6227M5.14003 23.192L7.5907 20.7413M24.9547 6.23733L23.524 4.808M23.524 4.808L22.0947 3.37733M23.524 4.808L21.0734 7.25867M12.3094 13.1333C12.8458 13.1333 13.3603 12.9202 13.7396 12.5409C14.1189 12.1616 14.332 11.6471 14.332 11.1107C14.332 10.5742 14.1189 10.0597 13.7396 9.68043C13.3603 9.3011 12.8458 9.088 12.3094 9.088C11.7729 9.088 11.2584 9.3011 10.8791 9.68043C10.4998 10.0597 10.2867 10.5742 10.2867 11.1107C10.2867 11.6471 10.4998 12.1616 10.8791 12.5409C11.2584 12.9202 11.7729 13.1333 12.3094 13.1333Z" stroke="#010846" stroke-width="1.5" stroke-linecap="round" stroke-linejoin="round"/>
<path d="M23.3829 10.9993C22.8805 9.48438 22.0057 8.11982 20.8389 7.03079C19.6721 5.94175 18.2506 5.16309 16.7046 4.76622C15.1587 4.36935 13.5378 4.36697 11.9907 4.7593C10.4436 5.15163 9.01979 5.92611 7.84979 7.01171C6.67979 8.09732 5.80107 9.4593 5.29423 10.9728C4.78739 12.4862 4.66864 14.1027 4.94888 15.674C5.22912 17.2453 5.89937 18.721 6.89817 19.966C7.89698 21.2109 9.19236 22.1851 10.6655 22.7993" stroke="#010846" stroke-width="1.5" stroke-linecap="round" stroke-linejoin="round"/>
<path d="M22.6641 20V26M19.6641 23H25.6641M30.6641 21C30.6683 23.3286 29.8778 25.5889 28.4231 27.4072C26.9685 29.2256 24.9368 30.493 22.6641 31C20.3914 30.493 18.3597 29.2256 16.905 27.4072C15.4504 25.5889 14.6598 23.3286 14.6641 21V18C14.6641 17.4696 14.8748 16.9609 15.2499 16.5858C15.6249 16.2107 16.1336 16 16.6641 16H28.6641C29.1945 16 29.7032 16.2107 30.0783 16.5858C30.4534 16.9609 30.6641 17.4696 30.6641 18V21Z" stroke="#010846" stroke-width="1.5" stroke-linecap="round" stroke-linejoin="round"/>
</svg>
