<svg width="64" height="64" viewBox="0 0 64 64" fill="none" xmlns="http://www.w3.org/2000/svg">
<circle cx="32" cy="32" r="32" fill="url(#paint0_linear_18_6593)"/>
<path d="M39.0662 31.3341L42.1131 23.5782L43.9423 31.7084C44.1694 32.7166 44.8831 33.5476 45.8438 33.9269L53.5997 36.9738L45.4695 38.803C44.4613 39.0301 43.6304 39.7438 43.251 40.7045L40.2041 48.4604L38.3749 40.3302C38.1478 39.3221 37.4341 38.4911 36.4734 38.1118L28.7175 35.0648L36.8477 33.2357C37.8559 33.0086 38.6869 32.2949 39.0662 31.3341Z" fill="white"/>
<path d="M24.7945 22.9109L18.4668 20.425L25.0999 18.9327C25.9224 18.7474 26.6004 18.1651 26.9098 17.3813L29.3957 11.0536L30.8881 17.6867C31.0733 18.5092 31.6556 19.1872 32.4394 19.4966L38.7671 21.9825L32.1341 23.4749C31.3115 23.6601 30.6336 24.2424 30.3241 25.0262L27.8382 31.3539L26.3459 24.7209C26.1606 23.8983 25.5783 23.2204 24.7945 22.9109Z" fill="white"/>
<path d="M24.3935 37.4263L28.9192 39.2043L24.1751 40.2716C23.5868 40.4041 23.102 40.8206 22.8806 41.3812L21.1027 45.9068L20.0353 41.1627C19.9028 40.5745 19.4864 40.0896 18.9258 39.8682L14.4001 38.0903L19.1442 37.023C19.7325 36.8905 20.2174 36.474 20.4387 35.9134L22.2166 31.3878L23.284 36.1318C23.4165 36.7201 23.8329 37.205 24.3935 37.4263Z" fill="white"/>
<defs>
<linearGradient id="paint0_linear_18_6593" x1="23.3412" y1="9.78824" x2="52.3294" y2="97.5059" gradientUnits="userSpaceOnUse">
<stop stop-color="#5887F3"/>
<stop offset="1" stop-color="#1F2EB8"/>
</linearGradient>
</defs>
</svg>
